HIERARCHY
ROOT reference
{
  OFFSET 0 0 0
  CHANNELS 6 Xposition Yposition Zposition Zrotation Xrotation Yrotation
  JOINT Hips
  {
    OFFSET -3.77425 86.413 66.3847
    CHANNELS 6 Xposition Yposition Zposition Zrotation Xrotation Yrotation
    JOINT Spine
    {
      OFFSET 0 7.85829 0
      CHANNELS 6 Xposition Yposition Zposition Zrotation Xrotation Yrotation
      JOINT Spine1
      {
        OFFSET 0 25.1384 0
        CHANNELS 6 Xposition Yposition Zposition Zrotation Xrotation Yrotation
        JOINT Neck
        {
          OFFSET 0 25.0351 2.27592
          CHANNELS 6 Xposition Yposition Zposition Zrotation Xrotation Yrotation
          JOINT Head
          {
            OFFSET 0 13.4166 -1.91665
            CHANNELS 6 Xposition Yposition Zposition Zrotation Xrotation Yrotation
            End Site
            {
              OFFSET 0 23.9582 0
            }
          }
        }
        JOINT LeftShoulder
        {
          OFFSET 3.81534 24.0346 -0.234509
          CHANNELS 6 Xposition Yposition Zposition Zrotation Xrotation Yrotation
          JOINT LeftArm
          {
            OFFSET 8.62273 0 0
            CHANNELS 6 Xposition Yposition Zposition Zrotation Xrotation Yrotation
            JOINT LeftForeArm
            {
              OFFSET 31.7064 0 0
              CHANNELS 6 Xposition Yposition Zposition Zrotation Xrotation Yrotation
              JOINT LeftHand
              {
                OFFSET 23.7731 0 0
                CHANNELS 6 Xposition Yposition Zposition Zrotation Xrotation Yrotation
                End Site
                {
                  OFFSET 14.3749 0 0
                }
              }
            }
          }
        }
        JOINT RightShoulder
        {
          OFFSET -3.83608 24.0346 -0.234509
          CHANNELS 6 Xposition Yposition Zposition Zrotation Xrotation Yrotation
          JOINT RightArm
          {
            OFFSET -8.62273 0 0
            CHANNELS 6 Xposition Yposition Zposition Zrotation Xrotation Yrotation
            JOINT RightForeArm
            {
              OFFSET -31.7064 0 0
              CHANNELS 6 Xposition Yposition Zposition Zrotation Xrotation Yrotation
              JOINT RightHand
              {
                OFFSET -23.7731 0 0
                CHANNELS 6 Xposition Yposition Zposition Zrotation Xrotation Yrotation
                End Site
                {
                  OFFSET -14.3749 0 0
                }
              }
            }
          }
        }
      }
    }
    JOINT LeftUpLeg
    {
      OFFSET 9.58328 0 0
      CHANNELS 6 Xposition Yposition Zposition Zrotation Xrotation Yrotation
      JOINT LeftLeg
      {
        OFFSET 0 -36.4535 0
        CHANNELS 6 Xposition Yposition Zposition Zrotation Xrotation Yrotation
        JOINT LeftFoot
        {
          OFFSET 0 -41.4659 0
          CHANNELS 6 Xposition Yposition Zposition Zrotation Xrotation Yrotation
          JOINT LeftToeBase
          {
            OFFSET 0 -6.22913 14.3749
            CHANNELS 6 Xposition Yposition Zposition Zrotation Xrotation Yrotation
            End Site
            {
              OFFSET 0 0 3.83331
            }
          }
        }
      }
    }
    JOINT RightUpLeg
    {
      OFFSET -9.58328 0 0
      CHANNELS 6 Xposition Yposition Zposition Zrotation Xrotation Yrotation
      JOINT RightLeg
      {
        OFFSET 0 -36.4535 0
        CHANNELS 6 Xposition Yposition Zposition Zrotation Xrotation Yrotation
        JOINT RightFoot
        {
          OFFSET 0 -41.4659 0
          CHANNELS 6 Xposition Yposition Zposition Zrotation Xrotation Yrotation
          JOINT RightToeBase
          {
            OFFSET 0 -6.22913 14.3749
            CHANNELS 6 Xposition Yposition Zposition Zrotation Xrotation Yrotation
            End Site
            {
              OFFSET 0 0 3.83331
            }
          }
        }
      }
    }
  }
}
MOTION
Frames:	6
Frame Time:	0.004
0 0 0 0 0 -0 -15.2403 78.8392 -198.608 1.66256 1.39772 1.33901 -1.77636e-015 7.85829 0 -2.09896 -11.8527 -1.15803 0 25.1384 0 1.24386 0.62238 -0.951059 -1.77636e-015 25.0351 2.27592 -1.81918 33.7172 0.64745 -3.55271e-015 13.4166 -1.91665 -0.389389 -3.19745 0.288776 3.81534 24.0346 -0.234509 10.8853 1.81175 3.31331 8.62273 -2.84217e-014 0 -9.76366 5.48808 -3.77308 31.7064 2.84217e-014 0 1.85369 -5.09037 0.803308 23.7731 0 0 7.88482 -5.27476 -2.49982 -3.83608 24.0346 -0.234509 -8.30664 2.19561 6.62137 -8.62273 -2.84217e-014 0 4.70554 0.565356 0.770081 -31.7064 0 0 -0.886284 -2.87994 1.69673 -23.7731 0 0 -6.47078 -2.99851 2.33182 9.58328 0 0 0.509047 5.27104 -0.294189 8.88178e-016 -36.4535 0 -8.26801 -3.25964 0.132378 0 -41.4659 0 6.38146 -5.27582 8.25274 -3.55271e-015 -6.22913 14.3749 0 0 -0 -9.58328 -1.42109e-014 0 -2.09254 0.656046 1.09283 0 -36.4535 2.84217e-014 3.62666 7.11497 4.05995 0 -41.4659 -2.84217e-014 -12.0062 -11.699 -15.6265 0 -6.22913 14.3749 1.2921e-015 -7.95139e-016 1.59028e-015 
0 0 0 0 0 -0 -15.2403 78.8392 -198.608 1.66295 1.38133 1.33901 0 7.85829 -2.84217e-014 -2.09846 -11.8284 -1.15793 0 25.1384 2.84217e-014 1.24386 0.62238 -0.951059 0 25.0351 2.27592 -1.81855 33.6863 0.647217 0 13.4166 -1.91665 -0.380505 -3.14042 0.28876 3.81534 24.0346 -0.234509 10.8863 1.79446 3.31328 8.62273 -2.84217e-014 0 -9.75794 5.49194 -3.77311 31.7064 -2.84217e-014 2.84217e-014 1.8507 -5.07597 0.80329 23.7731 -2.84217e-014 -2.84217e-014 7.80949 -5.25899 -2.49976 -3.83608 24.0346 -0.234509 -8.30528 2.1839 6.62132 -8.62273 0 0 4.71495 0.584348 0.767556 -31.7064 0 -2.84217e-014 -0.944519 -2.9826 1.68707 -23.7731 2.84217e-014 0 -5.85117 -3.09283 2.43153 9.58328 0 0 0.507877 5.29045 -0.280422 8.88178e-016 -36.4535 2.84217e-014 -8.26801 -3.25964 0.132378 -2.66454e-015 -41.4659 -2.84217e-014 6.39604 -5.27608 8.23275 -3.55271e-015 -6.22913 14.3749 9.93923e-017 3.97569e-016 1.59028e-015 -9.58328 -1.42109e-014 0 -2.09345 0.68086 1.1296 3.55271e-015 -36.4535 0 3.65142 7.10308 4.05984 7.10543e-015 -41.4659 0 -11.9935 -11.6963 -15.6751 7.10543e-015 -6.22913 14.3749 -3.97569e-016 0 -0 
0 0 0 0 0 -0 -15.2403 78.8392 -198.608 1.66274 1.39012 1.33901 -3.55271e-015 7.85829 0 -2.09845 -11.828 -1.15793 1.77636e-015 25.1384 2.84217e-014 1.24386 0.62238 -0.951059 -1.77636e-015 25.0351 2.27592 -1.80394 33.7188 0.647462 0 13.4166 -1.91665 -0.400096 -3.18603 0.288773 3.81534 24.0346 -0.234509 10.8858 1.80282 3.31329 8.62273 0 0 -9.74721 5.4431 -3.77777 31.7064 -5.68434e-014 0 1.83008 -5.0358 0.80324 23.7731 0 2.84217e-014 7.80819 -5.21781 -2.48915 -3.83608 24.0346 -0.234509 -8.30589 2.18921 6.62134 -8.62273 2.84217e-014 0 4.86149 1.08 0.749259 -31.7064 0 0 -1.30279 -3.23693 1.71653 -23.7731 0 0 -5.69356 -3.33467 2.36082 9.58328 1.42109e-014 0 0.510142 5.28192 -0.305471 4.44089e-016 -36.4535 0 -8.2677 -3.25693 0.137883 8.88178e-016 -41.4659 0 6.38993 -5.27617 8.25793 0 -6.22913 14.3749 -9.93923e-017 0 -1.59028e-015 -9.58328 0 -2.84217e-014 -2.09309 0.673909 1.11061 0 -36.4535 0 3.64014 7.10154 4.05812 0 -41.4659 0 -11.9623 -11.6972 -15.6584 0 -6.22913 14.3749 -2.78299e-015 0 -0 
0 0 0 0 0 -0 -15.2372 78.8392 -198.608 1.66256 1.39775 1.33901 0 7.85829 0 -2.0984 -11.8256 -1.15792 0 25.1384 -2.84217e-014 1.24386 0.62238 -0.951059 -1.77636e-015 25.0351 2.27592 -1.8118 33.6981 0.647306 0 13.4166 -1.91665 -0.385544 -3.13335 0.288758 3.81534 24.0346 -0.234509 10.8793 1.82341 3.31228 8.62273 -2.84217e-014 0 -9.73748 5.45147 -3.79393 31.7064 0 0 1.84093 -5.04701 0.803254 23.7731 0 2.84217e-014 7.75656 -5.22746 -2.47921 -3.83608 24.0346 -0.234509 -8.30658 2.19514 6.62137 -8.62273 5.68434e-014 -2.84217e-014 4.86012 1.10045 0.754232 -31.7064 0 0 -1.25854 -3.17199 1.7236 -23.7731 0 0 -6.28142 -3.27634 2.24932 9.58328 1.42109e-014 0 0.509708 5.27891 -0.300935 -1.33227e-015 -36.4535 -2.84217e-014 -8.26863 -3.27894 0.120729 -8.88178e-016 -41.4659 2.84217e-014 6.33087 -5.2496 8.25942 0 -6.22913 14.3749 -0 -7.95139e-016 -0 -9.58328 1.42109e-014 0 -2.09271 0.670105 1.08433 3.55271e-015 -36.4535 0 3.62902 7.10361 4.10188 0 -41.4659 2.84217e-014 -11.989 -11.6966 -15.6693 0 -6.22913 14.3749 1.2921e-015 0 -0 
0 0 0 0 0 -0 -15.2353 78.8392 -198.608 1.66242 1.4038 1.33902 1.77636e-015 7.85829 -2.84217e-014 -2.09834 -11.8227 -1.1579 0 25.1384 -2.84217e-014 1.24218 0.62238 -0.951059 -1.77636e-015 25.0351 2.27592 -1.80754 33.7065 0.647369 0 13.4166 -1.91665 -0.393585 -3.14098 0.28876 3.81534 24.0346 -0.234509 10.8911 1.80528 3.30072 8.62273 0 0 -9.74303 5.45016 -3.77887 31.7064 0 0 1.84278 -5.01613 0.803216 23.7731 -2.84217e-014 0 7.70424 -5.19583 -2.48469 -3.83608 24.0346 -0.234509 -8.3087 2.20545 6.62357 -8.62273 0 2.84217e-014 4.87089 1.08976 0.755111 -31.7064 0 0 -1.28837 -3.231 1.71894 -23.7731 0 0 -6.28739 -3.33613 2.26807 9.58328 0 -2.84217e-014 0.514694 5.27657 -0.305163 0 -36.4535 0 -8.26914 -3.2756 0.111909 -8.88178e-016 -41.4659 0 6.36653 -5.25909 8.2759 7.10543e-015 -6.22913 14.3749 -4.96962e-017 -3.97569e-016 -1.59028e-015 -9.58328 -1.42109e-014 -2.84217e-014 -2.09269 0.662529 1.09476 0 -36.4535 0 3.63678 7.10458 4.13756 -3.55271e-015 -41.4659 0 -12.0126 -11.6875 -15.7062 7.10543e-015 -6.22913 14.3749 1.49089e-015 1.59028e-015 1.59028e-015 
0 0 0 0 0 -0 -15.2336 78.8392 -198.608 1.66233 1.40771 1.33902 1.77636e-015 7.85829 0 -2.09829 -11.8199 -1.15789 0 25.1384 2.84217e-014 1.26377 0.62238 -0.951059 0 25.0351 2.27592 -1.82866 33.7177 0.647454 0 13.4166 -1.91665 -0.378893 -3.14143 0.28876 3.81534 24.0346 -0.234509 10.8738 1.80447 3.29241 8.62273 -2.84217e-014 2.84217e-014 -9.72901 5.43477 -3.76763 31.7064 -2.84217e-014 0 1.83739 -5.00232 0.803199 23.7731 0 2.84217e-014 7.65904 -5.18057 -2.47995 -3.83608 24.0346 -0.234509 -8.326 2.20549 6.63388 -8.62273 0 2.84217e-014 4.88205 1.11302 0.755193 -31.7064 -2.84217e-014 0 -1.2876 -3.24173 1.71413 -23.7731 -5.68434e-014 0 -6.318 -3.34701 2.25902 9.58328 1.42109e-014 0 0.510656 5.27479 -0.307228 8.88178e-016 -36.4535 -2.84217e-014 -8.26801 -3.29226 0.131056 2.66454e-015 -41.4659 0 6.37206 -5.23887 8.26662 -3.55271e-015 -6.22913 14.3749 -9.93923e-017 7.95139e-016 -1.59028e-015 -9.58328 0 0 -2.09004 0.661964 1.07619 0 -36.4535 0 3.62565 7.09627 4.1073 0 -41.4659 0 -11.9432 -11.6879 -15.652 0 -6.22913 14.3749 8.94531e-016 0 -1.59028e-015 
